<?xml version="1.0" encoding="iso-8859-1"?>
<!-- Uploaded to: SVG Repo, www.svgrepo.com, Generator: SVG Repo Mixer Tools -->
<svg fill="#000000" height="800px" width="800px" version="1.1" id="Layer_1" xmlns="http://www.w3.org/2000/svg" xmlns:xlink="http://www.w3.org/1999/xlink" 
	 viewBox="0 0 512.087 512.087" xml:space="preserve">
<g transform="translate(-1)">
	<g>
		<path d="M512.021,484.127l-19.218-59.559c5.924-14.526,9.028-30.148,9.028-46.167c0-14.714-2.599-28.82-7.359-41.888
			c12.17-29.396,18.581-60.728,18.581-92.858C513.052,109.1,403.96,0.007,269.404,0.007S25.756,109.1,25.756,243.655
			c0,35.045,7.418,69.061,21.54,100.308L2.082,484.124c-5.942,18.42,13.744,34.598,30.663,25.198l111.442-61.912
			c49.485,24.376,92.231,39.893,125.216,39.893c15.367,0,30.706-1.573,46.03-4.573c18.624,11.451,40.543,18.06,64.007,18.06
			c16.762,0,34.503-3.014,49.254-8.632l56.277,18.759C501.561,516.446,517.391,500.767,512.021,484.127z M193.809,423.364
			l32.41-21.607c22.729-15.152,1.685-49.665-22.194-36.399l-144.738,80.41l31.209-96.748c1.708-5.296,1.28-11.051-1.195-16.035
			c-13.672-27.541-20.879-57.896-20.879-89.33c0-110.991,89.99-200.981,200.981-200.981s200.981,89.99,200.981,200.981
			c0,15.963-1.918,31.689-5.647,46.99c-19.307-18.769-44.78-31.226-73.094-34.029c-0.317-0.032-0.636-0.055-0.954-0.085
			c-0.657-0.06-1.313-0.122-1.973-0.172c-0.968-0.073-1.94-0.134-2.913-0.185c-0.022-0.001-0.045-0.003-0.067-0.004
			c-2.087-0.107-4.186-0.163-6.294-0.163c-67.59,0-122.389,54.799-122.389,122.389c0,0.001,0,0.001,0,0.002c0,0.001,0,0.002,0,0.003
			c0,1.359,0.03,2.712,0.074,4.06c0.01,0.302,0.022,0.603,0.034,0.904c0.897,22.465,7.842,43.375,19.264,61.137
			c-2.342,0.088-4.682,0.134-7.02,0.134C251.149,444.637,224.543,436.573,193.809,423.364z M449.678,429.859l8.793,27.249
			l-24.005-8.002c-5.35-1.783-11.188-1.376-16.238,1.133c-9.724,4.831-24.847,7.884-38.785,7.884
			c-16.415,0-31.668-4.967-44.349-13.473c-0.723-0.697-1.503-1.362-2.355-1.983c-16.724-12.182-28.026-29.969-31.71-49.942
			c-0.024-0.135-0.049-0.27-0.072-0.405c-0.182-1.018-0.34-2.042-0.482-3.071c-0.087-0.636-0.172-1.273-0.243-1.914
			c-0.051-0.448-0.099-0.897-0.143-1.347c-0.1-1.054-0.183-2.112-0.242-3.177c-0.015-0.262-0.024-0.524-0.036-0.787
			c-0.054-1.2-0.091-2.405-0.091-3.618c0-0.003,0-0.005,0-0.008c0.001-44.025,35.697-79.721,79.723-79.721
			c1.262,0,2.515,0.037,3.762,0.095c0.275,0.013,0.549,0.03,0.824,0.045c0.98,0.056,1.955,0.132,2.925,0.222
			c0.309,0.029,0.619,0.052,0.927,0.085c1.105,0.116,2.202,0.258,3.293,0.419c0.566,0.085,1.128,0.184,1.691,0.281
			c0.504,0.086,1.007,0.174,1.507,0.269c0.733,0.141,1.465,0.286,2.192,0.447c0.131,0.029,0.262,0.061,0.393,0.091
			c24.032,5.445,44.377,21.904,54.836,44.795c0.383,0.839,0.817,1.623,1.278,2.377c3.921,9.423,6.094,19.755,6.094,30.596
			c0,12.459-2.864,24.495-8.289,35.414C448.397,418.802,447.968,424.559,449.678,429.859z"/>
	</g>
</g>
</svg>